# xmcd
#
# Track frame offsets: 
#        225
#        8037
#        18367
#        26627
#        38015
#        46425
#        59390
#        66665
#        77607
#        85582
#        92612
#        105295
#        113882
#        123422
#        128480
#        138970
#        151252
#        159370
#        166432
#        179767
#
# Disc length: 2467 seconds
#
# Revision: 2
# Processed by: cddbd v1.5PL3 Copyright (c) Steve Scherf et al.
# Submitted via: ExactAudioCopy v0.95a5
#
DISCID=f609a014
DTITLE=Mac Wiseman - Mac Wiseman 20 Old-Time Favorites
DYEAR=1997
DGENRE=Bluegrass
TTITLE0=I Saw Your Face In the Moon
TTITLE1=More Pretty Girls Than One
TTITLE2=Geogia Mail
TTITLE3=Mary of the Wild Moor
TTITLE4=Wreck of the Old 97
TTITLE5=Little Mohee
TTITLE6=How Many Biscuits Can You Eat
TTITLE7=Sittin' On Top Of The World
TTITLE8=Rovin' Gambler
TTITLE9=Corina Corina
TTITLE10=Little Blossom
TTITLE11=Just Over In Gloryland
TTITLE12=Grandfathers Clock
TTITLE13=Turkey In The Straw
TTITLE14=The Waltz You Saved For Me
TTITLE15=I'll Be All Smiles Tonight
TTITLE16=Midnight Special
TTITLE17=When They Ring Those Bells
TTITLE18=The Black Sheep
TTITLE19=Sourwood Mountain
EXTD=
EXTT0=
EXTT1=
EXTT2=
EXTT3=
EXTT4=
EXTT5=
EXTT6=
EXTT7=
EXTT8=
EXTT9=
EXTT10=
EXTT11=
EXTT12=
EXTT13=
EXTT14=
EXTT15=
EXTT16=
EXTT17=
EXTT18=
EXTT19=
PLAYORDER=
